<mxfile host="app.diagrams.net" modified="2020-09-24T16:57:11.886Z" agent="5.0 (Windows NT 10.0; Win64; x64) AppleWebKit/537.36 (KHTML, like Gecko) Chrome/85.0.4183.102 Safari/537.36" etag="DIT_ioRGUtixpsk_G990" version="13.7.5" type="github">
  <diagram name="Page-1" id="f1b7ffb7-ca1e-a977-7cf5-a751b3c06c05">
    <mxGraphModel dx="981" dy="1695" grid="1" gridSize="10" guides="1" tooltips="1" connect="1" arrows="1" fold="1" page="1" pageScale="1" pageWidth="826" pageHeight="1169" background="#ffffff" math="0" shadow="0">
      <root>
        <mxCell id="0" />
        <mxCell id="1" parent="0" />
        <mxCell id="32" value="" style="verticalLabelPosition=bottom;verticalAlign=top;strokeWidth=1;shape=mxgraph.mockup.graphics.iconGrid;strokeColor=#CCCCCC;gridSize=1,1;" parent="1" vertex="1">
          <mxGeometry x="20" y="1120" width="570" height="480" as="geometry" />
        </mxCell>
        <mxCell id="49" value="Tags: Tag1 Tag2 Tag3 Tag4" style="text;spacingTop=-5;" parent="1" vertex="1">
          <mxGeometry x="20" y="1579.9999999999998" width="210" height="20" as="geometry" />
        </mxCell>
        <mxCell id="rJAk0n7MR61yayMI597P-61" value="NIDEC HMI DEMO" style="strokeWidth=1;shadow=0;dashed=0;align=center;html=1;shape=mxgraph.mockup.containers.window;align=left;verticalAlign=top;spacingLeft=8;strokeColor2=#008cff;strokeColor3=#c4c4c4;fontColor=#666666;mainText=;fontSize=17;labelBackgroundColor=none;" vertex="1" parent="1">
          <mxGeometry x="140" y="-10" width="690" height="470" as="geometry" />
        </mxCell>
        <mxCell id="rJAk0n7MR61yayMI597P-70" value="" style="strokeWidth=1;shadow=0;dashed=0;align=center;html=1;shape=mxgraph.mockup.containers.marginRect2;rectMarginTop=32;strokeColor=#666666;gradientColor=none;" vertex="1" parent="1">
          <mxGeometry x="140" y="50" width="690" height="410" as="geometry" />
        </mxCell>
        <mxCell id="rJAk0n7MR61yayMI597P-71" value="Tab 1" style="strokeColor=inherit;fillColor=inherit;gradientColor=inherit;strokeWidth=1;shadow=0;dashed=0;align=center;html=1;shape=mxgraph.mockup.containers.rrect;rSize=0;fontSize=17;fontColor=#666666;gradientColor=none;" vertex="1" parent="rJAk0n7MR61yayMI597P-70">
          <mxGeometry width="60" height="25" relative="1" as="geometry">
            <mxPoint x="10" as="offset" />
          </mxGeometry>
        </mxCell>
        <mxCell id="rJAk0n7MR61yayMI597P-72" value="Tab 2" style="strokeWidth=1;shadow=0;dashed=0;align=center;html=1;shape=mxgraph.mockup.containers.rrect;rSize=0;fontSize=17;fontColor=#ffffff;strokeColor=#008cff;fillColor=#008cff;" vertex="1" parent="rJAk0n7MR61yayMI597P-70">
          <mxGeometry width="60" height="25" relative="1" as="geometry">
            <mxPoint x="75" as="offset" />
          </mxGeometry>
        </mxCell>
        <mxCell id="rJAk0n7MR61yayMI597P-73" value="Tab 3" style="strokeColor=inherit;fillColor=inherit;gradientColor=inherit;strokeWidth=1;shadow=0;dashed=0;align=center;html=1;shape=mxgraph.mockup.containers.rrect;rSize=0;fontSize=17;fontColor=#666666;gradientColor=none;" vertex="1" parent="rJAk0n7MR61yayMI597P-70">
          <mxGeometry width="60" height="25" relative="1" as="geometry">
            <mxPoint x="140" as="offset" />
          </mxGeometry>
        </mxCell>
        <mxCell id="rJAk0n7MR61yayMI597P-74" value="" style="strokeWidth=1;shadow=0;dashed=0;align=center;html=1;shape=mxgraph.mockup.containers.topButton;rSize=5;strokeColor=#008cff;fillColor=#008cff;gradientColor=none;resizeWidth=1;movable=0;deletable=1;" vertex="1" parent="rJAk0n7MR61yayMI597P-70">
          <mxGeometry width="690" height="7" relative="1" as="geometry">
            <mxPoint y="25" as="offset" />
          </mxGeometry>
        </mxCell>
        <mxCell id="rJAk0n7MR61yayMI597P-76" value="" style="shape=mxgraph.mockup.containers.marginRect;rectMarginTop=10;strokeColor=#666666;strokeWidth=1;dashed=0;rounded=1;arcSize=5;recursiveResize=0;" vertex="1" parent="rJAk0n7MR61yayMI597P-70">
          <mxGeometry x="20.004324324324323" y="40" width="354.3243243243243" height="360" as="geometry" />
        </mxCell>
        <mxCell id="rJAk0n7MR61yayMI597P-77" value="BUTTON VIEW" style="shape=rect;strokeColor=none;fillColor=#008cff;strokeWidth=1;dashed=0;rounded=1;arcSize=20;fontColor=#ffffff;fontSize=17;spacing=2;spacingTop=-2;align=left;autosize=1;spacingLeft=4;resizeWidth=0;resizeHeight=0;perimeter=none;" vertex="1" parent="rJAk0n7MR61yayMI597P-76">
          <mxGeometry x="4.662162162162162" width="140" height="30" as="geometry" />
        </mxCell>
        <mxCell id="rJAk0n7MR61yayMI597P-118" value="" style="verticalLabelPosition=bottom;shadow=0;dashed=0;align=center;html=1;verticalAlign=top;strokeWidth=1;shape=mxgraph.mockup.graphics.simpleIcon;strokeColor=#999999;fillColor=#ffffff;" vertex="1" parent="rJAk0n7MR61yayMI597P-76">
          <mxGeometry x="245.2297297297297" y="260" width="81.12162162162163" height="80" as="geometry" />
        </mxCell>
        <mxCell id="rJAk0n7MR61yayMI597P-119" value="" style="verticalLabelPosition=bottom;shadow=0;dashed=0;align=center;html=1;verticalAlign=top;strokeWidth=1;shape=mxgraph.mockup.graphics.simpleIcon;strokeColor=#999999;fillColor=#ffffff;" vertex="1" parent="rJAk0n7MR61yayMI597P-76">
          <mxGeometry x="245.2297297297297" y="150" width="81.12162162162163" height="80" as="geometry" />
        </mxCell>
        <mxCell id="rJAk0n7MR61yayMI597P-120" value="" style="verticalLabelPosition=bottom;shadow=0;dashed=0;align=center;html=1;verticalAlign=top;strokeWidth=1;shape=mxgraph.mockup.graphics.simpleIcon;strokeColor=#999999;fillColor=#ffffff;" vertex="1" parent="rJAk0n7MR61yayMI597P-76">
          <mxGeometry x="245.2297297297297" y="40" width="81.12162162162163" height="80" as="geometry" />
        </mxCell>
        <mxCell id="rJAk0n7MR61yayMI597P-121" value="" style="verticalLabelPosition=bottom;shadow=0;dashed=0;align=center;html=1;verticalAlign=top;strokeWidth=1;shape=mxgraph.mockup.graphics.simpleIcon;strokeColor=#999999;fillColor=#ffffff;" vertex="1" parent="rJAk0n7MR61yayMI597P-76">
          <mxGeometry x="136.60135135135133" y="40" width="81.12162162162163" height="80" as="geometry" />
        </mxCell>
        <mxCell id="rJAk0n7MR61yayMI597P-122" value="" style="verticalLabelPosition=bottom;shadow=0;dashed=0;align=center;html=1;verticalAlign=top;strokeWidth=1;shape=mxgraph.mockup.graphics.simpleIcon;strokeColor=#999999;fillColor=#ffffff;" vertex="1" parent="rJAk0n7MR61yayMI597P-76">
          <mxGeometry x="27.97297297297297" y="40" width="81.12162162162163" height="80" as="geometry" />
        </mxCell>
        <mxCell id="rJAk0n7MR61yayMI597P-123" value="" style="verticalLabelPosition=bottom;shadow=0;dashed=0;align=center;html=1;verticalAlign=top;strokeWidth=1;shape=mxgraph.mockup.graphics.simpleIcon;strokeColor=#999999;fillColor=#ffffff;" vertex="1" parent="rJAk0n7MR61yayMI597P-76">
          <mxGeometry x="27.97297297297297" y="150" width="81.12162162162163" height="80" as="geometry" />
        </mxCell>
        <mxCell id="rJAk0n7MR61yayMI597P-124" value="" style="verticalLabelPosition=bottom;shadow=0;dashed=0;align=center;html=1;verticalAlign=top;strokeWidth=1;shape=mxgraph.mockup.graphics.simpleIcon;strokeColor=#999999;fillColor=#ffffff;" vertex="1" parent="rJAk0n7MR61yayMI597P-76">
          <mxGeometry x="139.86486486486487" y="150" width="81.12162162162163" height="80" as="geometry" />
        </mxCell>
        <mxCell id="rJAk0n7MR61yayMI597P-125" value="" style="verticalLabelPosition=bottom;shadow=0;dashed=0;align=center;html=1;verticalAlign=top;strokeWidth=1;shape=mxgraph.mockup.graphics.simpleIcon;strokeColor=#999999;fillColor=#ffffff;" vertex="1" parent="rJAk0n7MR61yayMI597P-76">
          <mxGeometry x="136.60135135135133" y="260" width="81.12162162162163" height="80" as="geometry" />
        </mxCell>
        <mxCell id="rJAk0n7MR61yayMI597P-126" value="" style="verticalLabelPosition=bottom;shadow=0;dashed=0;align=center;html=1;verticalAlign=top;strokeWidth=1;shape=mxgraph.mockup.graphics.simpleIcon;strokeColor=#999999;fillColor=#ffffff;" vertex="1" parent="rJAk0n7MR61yayMI597P-76">
          <mxGeometry x="27.97297297297297" y="260" width="81.12162162162163" height="80" as="geometry" />
        </mxCell>
        <mxCell id="rJAk0n7MR61yayMI597P-83" value="Force Threhold" style="strokeWidth=1;shadow=0;dashed=0;align=center;html=1;shape=mxgraph.mockup.buttons.button;strokeColor=#666666;fontColor=#ffffff;mainText=;buttonStyle=round;fontSize=17;fontStyle=1;fillColor=#008cff;whiteSpace=wrap;" vertex="1" parent="rJAk0n7MR61yayMI597P-70">
          <mxGeometry x="563.5721621621622" y="55" width="102.56756756756756" height="40" as="geometry" />
        </mxCell>
        <mxCell id="rJAk0n7MR61yayMI597P-84" value="Haptic Level" style="strokeWidth=1;shadow=0;dashed=0;align=center;html=1;shape=mxgraph.mockup.buttons.button;strokeColor=#666666;fontColor=#ffffff;mainText=;buttonStyle=round;fontSize=17;fontStyle=1;fillColor=#008cff;whiteSpace=wrap;" vertex="1" parent="rJAk0n7MR61yayMI597P-70">
          <mxGeometry x="563.5721621621622" y="115" width="102.56756756756756" height="40" as="geometry" />
        </mxCell>
        <mxCell id="rJAk0n7MR61yayMI597P-89" value="Button #" style="strokeWidth=1;shadow=0;dashed=0;align=center;html=1;shape=mxgraph.mockup.buttons.button;strokeColor=#666666;fontColor=#ffffff;mainText=;buttonStyle=round;fontSize=17;fontStyle=1;fillColor=#008cff;whiteSpace=wrap;" vertex="1" parent="rJAk0n7MR61yayMI597P-70">
          <mxGeometry x="563.5690209517875" y="180" width="102.56756756756756" height="40" as="geometry" />
        </mxCell>
        <mxCell id="rJAk0n7MR61yayMI597P-127" value="0-10N" style="strokeWidth=1;shadow=0;dashed=0;align=center;html=1;shape=mxgraph.mockup.text.textBox;fontColor=#666666;align=left;fontSize=17;spacingLeft=4;spacingTop=-3;strokeColor=#666666;mainText=" vertex="1" parent="rJAk0n7MR61yayMI597P-70">
          <mxGeometry x="399.99780979827085" y="60" width="114.19798270893372" height="30" as="geometry" />
        </mxCell>
        <mxCell id="rJAk0n7MR61yayMI597P-128" value="1~10 Step" style="strokeWidth=1;shadow=0;dashed=0;align=center;html=1;shape=mxgraph.mockup.text.textBox;fontColor=#666666;align=left;fontSize=17;spacingLeft=4;spacingTop=-3;strokeColor=#666666;mainText=" vertex="1" parent="rJAk0n7MR61yayMI597P-70">
          <mxGeometry x="401.152972972973" y="120" width="111.89189189189187" height="30" as="geometry" />
        </mxCell>
        <mxCell id="rJAk0n7MR61yayMI597P-132" value="&lt;font style=&quot;font-size: 20px&quot;&gt;UPLOAD PROGRAM&lt;/font&gt;" style="strokeWidth=1;shadow=0;dashed=0;align=center;html=1;shape=mxgraph.mockup.buttons.button;strokeColor=#666666;fontColor=#ffffff;mainText=;buttonStyle=round;fontSize=17;fontStyle=1;fillColor=#008cff;whiteSpace=wrap;" vertex="1" parent="rJAk0n7MR61yayMI597P-70">
          <mxGeometry x="440.0013778331645" y="250" width="200.47297297297297" height="50" as="geometry" />
        </mxCell>
        <mxCell id="rJAk0n7MR61yayMI597P-136" value="9 Button" style="strokeWidth=1;shadow=0;dashed=0;align=center;html=1;shape=mxgraph.mockup.forms.comboBox;strokeColor=#999999;fillColor=#ddeeff;align=left;fillColor2=#aaddff;mainText=;fontColor=#666666;fontSize=17;spacingLeft=3;" vertex="1" parent="rJAk0n7MR61yayMI597P-70">
          <mxGeometry x="399.99960121504785" y="185" width="111.89189189189187" height="30" as="geometry" />
        </mxCell>
        <mxCell id="rJAk0n7MR61yayMI597P-100" value="&lt;font style=&quot;font-size: 20px&quot;&gt;START DEMO&lt;/font&gt;" style="strokeWidth=1;shadow=0;dashed=0;align=center;html=1;shape=mxgraph.mockup.buttons.button;strokeColor=#666666;fontColor=#ffffff;mainText=;buttonStyle=round;fontSize=17;fontStyle=1;fillColor=#008cff;whiteSpace=wrap;" vertex="1" parent="rJAk0n7MR61yayMI597P-70">
          <mxGeometry x="440.0059459459459" y="350" width="198.1418918918919" height="50" as="geometry" />
        </mxCell>
        <mxCell id="rJAk0n7MR61yayMI597P-137" value="" style="verticalLabelPosition=bottom;shadow=0;dashed=0;align=center;html=1;verticalAlign=top;strokeWidth=1;shape=mxgraph.mockup.forms.splitter;strokeColor=#999999;" vertex="1" parent="rJAk0n7MR61yayMI597P-70">
          <mxGeometry x="387.7521613832853" y="320" width="278.38616714697406" height="10" as="geometry" />
        </mxCell>
        <mxCell id="rJAk0n7MR61yayMI597P-101" value="" style="strokeWidth=1;shadow=0;dashed=0;align=center;html=1;shape=mxgraph.mockup.forms.rrect;rSize=0;strokeColor=#999999;" vertex="1" parent="1">
          <mxGeometry x="140" y="20" width="498" height="30" as="geometry" />
        </mxCell>
        <mxCell id="rJAk0n7MR61yayMI597P-102" value="File" style="strokeColor=inherit;fillColor=inherit;gradientColor=inherit;strokeWidth=1;shadow=0;dashed=0;align=center;html=1;shape=mxgraph.mockup.forms.rrect;rSize=0;fontSize=17;fontColor=#666666;" vertex="1" parent="rJAk0n7MR61yayMI597P-101">
          <mxGeometry width="83" height="30" as="geometry" />
        </mxCell>
        <mxCell id="rJAk0n7MR61yayMI597P-103" value="Edit" style="strokeColor=inherit;fillColor=inherit;gradientColor=inherit;strokeWidth=1;shadow=0;dashed=0;align=center;html=1;shape=mxgraph.mockup.forms.rrect;rSize=0;fontSize=17;fontColor=#666666;" vertex="1" parent="rJAk0n7MR61yayMI597P-101">
          <mxGeometry x="83" width="83" height="30" as="geometry" />
        </mxCell>
        <mxCell id="rJAk0n7MR61yayMI597P-104" value="Options" style="strokeColor=inherit;fillColor=inherit;gradientColor=inherit;strokeWidth=1;shadow=0;dashed=0;align=center;html=1;shape=mxgraph.mockup.forms.rrect;rSize=0;fontSize=17;fontColor=#666666;" vertex="1" parent="rJAk0n7MR61yayMI597P-101">
          <mxGeometry x="166" width="83" height="30" as="geometry" />
        </mxCell>
        <mxCell id="rJAk0n7MR61yayMI597P-105" value="Tools" style="strokeColor=inherit;fillColor=inherit;gradientColor=inherit;strokeWidth=1;shadow=0;dashed=0;align=center;html=1;shape=mxgraph.mockup.forms.rrect;rSize=0;fontSize=17;fontColor=#666666;" vertex="1" parent="rJAk0n7MR61yayMI597P-101">
          <mxGeometry x="249" width="83" height="30" as="geometry" />
        </mxCell>
        <mxCell id="rJAk0n7MR61yayMI597P-106" value="Window" style="strokeColor=inherit;fillColor=inherit;gradientColor=inherit;strokeWidth=1;shadow=0;dashed=0;align=center;html=1;shape=mxgraph.mockup.forms.rrect;rSize=0;fontSize=17;fontColor=#666666;" vertex="1" parent="rJAk0n7MR61yayMI597P-101">
          <mxGeometry x="332" width="83" height="30" as="geometry" />
        </mxCell>
        <mxCell id="rJAk0n7MR61yayMI597P-107" value="Help" style="strokeColor=inherit;fillColor=inherit;gradientColor=inherit;strokeWidth=1;shadow=0;dashed=0;align=center;html=1;shape=mxgraph.mockup.forms.rrect;rSize=0;fontSize=17;fontColor=#666666;" vertex="1" parent="rJAk0n7MR61yayMI597P-101">
          <mxGeometry x="415" width="83" height="30" as="geometry" />
        </mxCell>
        <mxCell id="rJAk0n7MR61yayMI597P-133" value="" style="verticalLabelPosition=bottom;shadow=0;dashed=0;align=center;html=1;verticalAlign=top;strokeWidth=1;shape=mxgraph.mockup.forms.horSlider;strokeColor=#999999;sliderStyle=basic;sliderPos=32.395;handleStyle=circle;fillColor2=#ddeeff;" vertex="1" parent="1">
          <mxGeometry x="880" y="120" width="160" height="30" as="geometry" />
        </mxCell>
        <mxCell id="rJAk0n7MR61yayMI597P-134" value="&lt;table cellpadding=&quot;0&quot; cellspacing=&quot;0&quot; style=&quot;width:100%;height:100%;&quot;&gt;&lt;tr&gt;&lt;td style=&quot;width:85%&quot;&gt;100&lt;/td&gt;&lt;td style=&quot;width:15%&quot;&gt;&lt;/td&gt;&lt;/tr&gt;&lt;/table&gt;" style="strokeWidth=1;shadow=0;dashed=0;align=center;html=1;shape=mxgraph.mockup.forms.spinner;strokeColor=#999999;spinLayout=right;spinStyle=normal;adjStyle=triangle;fillColor=#aaddff;fontSize=17;fontColor=#666666;mainText=;html=1;overflow=fill;" vertex="1" parent="1">
          <mxGeometry x="880" y="190" width="160" height="30" as="geometry" />
        </mxCell>
        <mxCell id="rJAk0n7MR61yayMI597P-135" value="Option 1" style="strokeWidth=1;shadow=0;dashed=0;align=center;html=1;shape=mxgraph.mockup.forms.comboBox;strokeColor=#999999;fillColor=#ddeeff;align=left;fillColor2=#aaddff;mainText=;fontColor=#666666;fontSize=17;spacingLeft=3;" vertex="1" parent="1">
          <mxGeometry x="880" y="250" width="160" height="30" as="geometry" />
        </mxCell>
      </root>
    </mxGraphModel>
  </diagram>
</mxfile>
